<svg width="256" height="256" fill="none" xmlns="http://www.w3.org/2000/svg"><g clip-path="url(#a)"><path d="M128 250.435c67.619 0 122.435-54.816 122.435-122.435S195.619 5.565 128 5.565 5.565 60.38 5.565 128 60.381 250.435 128 250.435Z" fill="#B5A771"/><path d="M38.956 139.13c6.148 0 11.131-4.983 11.131-11.13 0-6.147-4.983-11.131-11.13-11.131-6.148 0-11.131 4.984-11.131 11.131s4.983 11.13 11.13 11.13ZM72.348 205.913c12.294 0 22.261-9.967 22.261-22.261 0-12.295-9.967-22.261-22.261-22.261-12.294 0-22.261 9.966-22.261 22.261 0 12.294 9.967 22.261 22.261 22.261ZM183.652 139.13c18.442 0 33.392-14.949 33.392-33.391s-14.95-33.392-33.392-33.392c-18.442 0-33.392 14.95-33.392 33.392 0 18.442 14.95 33.391 33.392 33.391Z" fill="#776F26"/><path d="M128 22.261c-24.136 0-47.742 8.346-66.47 23.5a5.565 5.565 0 0 0 7.001 8.651c16.754-13.555 37.873-21.02 59.469-21.02a5.565 5.565 0 0 0 0-11.131ZM49.643 65.376a5.543 5.543 0 0 0 3.692 1.403 5.55 5.55 0 0 0 4.164-1.871l.08-.088a5.565 5.565 0 0 0-8.269-7.451l-.135.15a5.564 5.564 0 0 0 .468 7.857ZM55.652 128c0-9.206-7.49-16.696-16.696-16.696-9.206 0-16.695 7.49-16.695 16.696 0 9.206 7.49 16.695 16.695 16.695 9.206 0 16.696-7.489 16.696-16.695Zm-16.696 5.565A5.572 5.572 0 0 1 33.392 128a5.571 5.571 0 0 1 5.566-5.565A5.571 5.571 0 0 1 44.521 128a5.572 5.572 0 0 1-5.566 5.565ZM72.348 155.826c-15.343 0-27.826 12.483-27.826 27.826s12.483 27.826 27.826 27.826 27.826-12.483 27.826-27.826-12.483-27.826-27.826-27.826Zm0 44.522c-9.206 0-16.695-7.49-16.695-16.696 0-9.206 7.489-16.695 16.695-16.695s16.695 7.489 16.695 16.695-7.489 16.696-16.695 16.696ZM183.652 66.782c-21.481 0-38.957 17.477-38.957 38.957s17.476 38.956 38.957 38.956c21.48 0 38.957-17.476 38.957-38.956 0-21.48-17.476-38.957-38.957-38.957Zm0 66.783c-15.344 0-27.826-12.483-27.826-27.826s12.483-27.826 27.826-27.826 27.826 12.483 27.826 27.826-12.483 27.826-27.826 27.826Z" fill="#000"/></g><defs><clipPath id="a"><path fill="#fff" d="M0 0h256v256H0z"/></clipPath></defs></svg>