<svg width="1720" height="435" viewBox="0 0 1720 435" fill="none" xmlns="http://www.w3.org/2000/svg">
<path d="M368.46 129.6C367.94 127.693 376.693 126.74 394.72 126.74C414.653 126.74 424.88 128.387 425.4 131.68L438.14 241.14L465.7 130.38C466.567 127.78 473.327 126.48 485.98 126.48C498.633 126.48 505.393 127.693 506.26 130.12L533.3 241.66L548.38 131.16C548.727 129.253 552.713 127.953 560.34 127.26C567.967 126.567 574.12 126.22 578.8 126.22C597 126.22 605.84 127.433 605.32 129.86L573.86 302.24C573.167 304.84 568.227 306.747 559.04 307.96C549.853 309.173 542.4 309.78 536.68 309.78C515.187 309.78 503.92 307.353 502.88 302.5L485.2 231L465.96 302.24C465.267 305.36 459.2 307.613 447.76 309C441.867 309.52 435.973 309.78 430.08 309.78L413.44 309C402 307.787 395.933 305.62 395.24 302.5L368.46 129.6ZM708.313 199.28C711.606 199.28 713.253 205.347 713.253 217.48C713.253 221.12 712.819 225.453 711.953 230.48C711.259 235.333 709.873 237.76 707.793 237.76H674.773V263.76H722.613C725.559 263.76 727.553 267.573 728.593 275.2C729.113 278.493 729.373 282.047 729.373 285.86C729.373 289.5 728.853 294.267 727.813 300.16C726.773 306.053 725.039 309 722.613 309H633.693C627.106 309 623.813 306.313 623.813 300.94V133.76C623.813 129.253 625.806 127 629.793 127H722.873C726.513 127 728.333 134.713 728.333 150.14C728.333 165.393 726.513 173.02 722.873 173.02H674.773V199.28H708.313ZM807.799 245.56C811.092 248.16 816.726 251.713 824.699 256.22C832.846 260.727 840.559 262.98 847.839 262.98C855.292 262.98 859.019 260.12 859.019 254.4C859.019 251.8 857.979 249.547 855.899 247.64C853.819 245.56 850.006 243.22 844.459 240.62C838.912 238.02 834.752 236.027 831.979 234.64C829.206 233.08 825.479 230.653 820.799 227.36C816.292 223.893 812.826 220.34 810.399 216.7C803.466 206.82 799.999 194.253 799.999 179C799.999 163.747 805.632 150.92 816.899 140.52C828.339 129.947 843.246 124.66 861.619 124.66C874.099 124.66 885.626 126.047 896.199 128.82C906.772 131.42 912.232 134.887 912.579 139.22C912.579 139.74 912.579 140.26 912.579 140.78C912.579 146.847 910.672 154.56 906.859 163.92C903.046 173.107 900.359 178.22 898.799 179.26C887.706 173.54 877.739 170.68 868.899 170.68C860.232 170.68 855.899 173.8 855.899 180.04C855.899 183.853 859.106 187.233 865.519 190.18C866.906 190.873 868.899 191.827 871.499 193.04C874.099 194.253 877.046 195.727 880.339 197.46C883.806 199.02 887.446 201.1 891.259 203.7C895.246 206.127 899.492 209.42 903.999 213.58C913.186 222.247 917.779 233.687 917.779 247.9C917.779 266.447 912.666 281.613 902.439 293.4C892.212 305.187 876.439 311.253 855.119 311.6C844.719 311.6 835.272 310.733 826.779 309C818.459 307.267 811.179 303.887 804.939 298.86C798.699 293.833 795.579 287.767 795.579 280.66C795.579 273.553 796.879 266.533 799.479 259.6C802.079 252.493 804.852 247.813 807.799 245.56ZM1016.38 311.6C992.117 311.6 972.271 303.627 956.844 287.68C941.591 271.733 933.964 248.507 933.964 218C933.964 187.32 941.677 164.093 957.104 148.32C972.704 132.547 992.724 124.66 1017.16 124.66C1041.78 124.66 1061.62 132.46 1076.7 148.06C1091.78 163.487 1099.32 186.973 1099.32 218.52C1099.32 249.893 1091.61 273.293 1076.18 288.72C1060.76 303.973 1040.82 311.6 1016.38 311.6ZM1016.64 174.58C1008.32 174.58 1001.3 178.393 995.584 186.02C990.037 193.647 987.264 204.393 987.264 218.26C987.264 231.953 989.951 242.527 995.324 249.98C1000.7 257.26 1007.72 260.9 1016.38 260.9C1025.22 260.9 1032.33 257.173 1037.7 249.72C1043.25 242.267 1046.02 231.607 1046.02 217.74C1046.02 203.873 1043.16 193.213 1037.44 185.76C1031.9 178.307 1024.96 174.58 1016.64 174.58ZM1117.6 293.66V131.94C1117.6 128.3 1126.35 126.48 1143.86 126.48C1161.54 126.48 1170.38 128.3 1170.38 131.94V259.34H1210.42C1213.54 259.34 1215.71 263.413 1216.92 271.56C1217.44 275.547 1217.7 279.62 1217.7 283.78C1217.7 287.94 1217.44 292.187 1216.92 296.52C1215.53 304.84 1213.28 309 1210.16 309H1130.08C1126.27 309 1123.23 307.44 1120.98 304.32C1118.73 301.2 1117.6 297.647 1117.6 293.66ZM1217.97 130.38C1217.97 129.513 1221.7 128.733 1229.15 128.04C1236.78 127.173 1243.02 126.74 1247.87 126.74C1267.11 126.74 1277.16 129.253 1278.03 134.28L1300.39 248.68L1321.45 134.28C1322.49 129.253 1333.24 126.74 1353.69 126.74C1358.72 126.74 1365.04 127.087 1372.67 127.78C1380.3 128.473 1384.11 129.253 1384.11 130.12L1338.09 302.24C1337.4 305.013 1332.28 306.833 1322.75 307.7C1308.02 309.26 1294.58 309.607 1282.45 308.74C1270.49 307.7 1264.16 305.967 1263.47 303.54L1217.97 130.38ZM1484.5 199.28C1487.8 199.28 1489.44 205.347 1489.44 217.48C1489.44 221.12 1489.01 225.453 1488.14 230.48C1487.45 235.333 1486.06 237.76 1483.98 237.76H1450.96V263.76H1498.8C1501.75 263.76 1503.74 267.573 1504.78 275.2C1505.3 278.493 1505.56 282.047 1505.56 285.86C1505.56 289.5 1505.04 294.267 1504 300.16C1502.96 306.053 1501.23 309 1498.8 309H1409.88C1403.3 309 1400 306.313 1400 300.94V133.76C1400 129.253 1402 127 1405.98 127H1499.06C1502.7 127 1504.52 134.713 1504.52 150.14C1504.52 165.393 1502.7 173.02 1499.06 173.02H1450.96V199.28H1484.5ZM1577.89 305.36C1577.89 308.133 1569.65 309.52 1553.19 309.52C1536.55 309.52 1528.23 308.22 1528.23 305.62V136.1C1528.23 130.033 1531.43 127 1537.85 127H1587.51C1633.09 127 1655.89 144.767 1655.89 180.3C1655.89 191.047 1653.81 200.84 1649.65 209.68C1645.49 218.347 1639.59 225.28 1631.97 230.48L1664.73 285.08C1663.34 289.24 1658.83 294.007 1651.21 299.38C1640.81 306.833 1632.23 310.56 1625.47 310.56C1618.71 310.56 1613.68 308.133 1610.39 303.28L1585.95 246.34H1577.89V305.36ZM1577.89 173.02V212.02H1579.19C1595.65 212.02 1603.89 205.173 1603.89 191.48C1603.89 185.24 1602.24 180.647 1598.95 177.7C1595.83 174.58 1590.63 173.02 1583.35 173.02H1577.89Z" fill="#436BFF"/>
<path d="M61 200.775C84.4068 219.543 135.897 252.385 163.983 271.15C192.068 289.916 215.478 257.071 192.069 238.308C168.661 219.547 143.726 207.988 117.176 186.695C112.498 135.081 215.477 116.319 257.603 167.933C271.65 182.003 304.417 158.556 276.327 130.399C224.84 78.7862 89.0896 69.4015 61 200.775Z" fill="#436BFF"/>
<path d="M302.67 234.225C279.125 215.457 227.332 182.615 199.081 163.85C170.831 145.084 147.283 177.929 170.83 196.692C194.375 215.453 219.457 227.012 246.163 248.305C250.869 299.919 147.283 318.681 104.91 267.067C90.7807 252.997 57.8207 276.444 86.0755 304.601C137.866 356.214 274.415 365.598 302.67 234.225Z" fill="#436BFF"/>
</svg>
